<?xml version="1.0" standalone="no"?>
<!DOCTYPE svg PUBLIC "-//W3C//DTD SVG 20010904//EN"
 "http://www.w3.org/TR/2001/REC-SVG-20010904/DTD/svg10.dtd">
<svg version="1.0" xmlns="http://www.w3.org/2000/svg"
 width="225.000000pt" height="225.000000pt" viewBox="0 0 225.000000 225.000000"
 preserveAspectRatio="xMidYMid meet">

<g transform="translate(0.000000,225.000000) scale(0.100000,-0.100000)"
fill="#000000" stroke="none">
<path d="M1885 1285 c-32 -31 -33 -74 -2 -103 31 -30 72 -28 104 4 20 20 24
31 19 57 -12 64 -77 87 -121 42z m85 -19 c15 -19 9 -56 -11 -69 -9 -5 -28 -7
-42 -3 -48 12 -32 86 19 86 12 0 27 -7 34 -14z"/>
<path d="M1550 1177 c-73 -26 -79 -110 -10 -134 19 -7 81 -12 138 -12 102 -1
135 -14 67 -27 -33 -6 -92 -3 -207 12 -40 5 -48 3 -48 -10 0 -21 34 -54 64
-62 13 -3 77 -4 141 -2 114 3 117 4 141 31 29 34 30 56 4 90 -20 26 -25 26
-142 29 -92 2 -122 6 -126 17 -4 11 16 12 109 8 63 -3 126 -8 142 -12 22 -6
27 -4 27 12 0 11 -12 30 -26 44 -23 22 -35 24 -132 26 -67 2 -120 -2 -142 -10z"/>
<path d="M240 1060 l0 -120 35 0 34 0 3 75 3 75 64 -50 c54 -41 67 -48 80 -38
9 7 37 30 64 51 l47 39 0 -77 0 -76 38 3 37 3 3 118 3 117 -42 0 c-34 0 -51
-8 -103 -49 l-62 -49 -63 49 c-51 39 -71 49 -102 49 l-39 0 0 -120z"/>
<path d="M720 1138 c-6 -24 -20 -75 -31 -114 -10 -38 -19 -73 -19 -77 0 -4 16
-7 36 -7 27 0 37 5 41 20 5 19 14 20 123 20 109 0 118 -1 123 -20 4 -15 14
-20 42 -20 30 0 35 3 31 18 -3 9 -17 63 -32 120 l-27 102 -138 0 -138 0 -11
-42z m238 -50 l8 -33 -94 -3 c-52 -1 -96 -1 -98 1 -2 2 1 18 7 35 l11 32 79 0
78 0 9 -32z"/>
<path d="M1090 1060 l0 -120 40 0 c38 0 40 2 40 30 l0 30 79 0 c78 0 80 -1 98
-30 15 -26 23 -30 61 -30 l44 0 -20 33 -20 32 24 28 c35 41 32 88 -7 121 -30
26 -33 26 -185 26 l-154 0 0 -120z m290 45 c10 -12 10 -18 0 -30 -10 -11 -36
-15 -111 -15 l-99 0 0 30 0 30 99 0 c75 0 101 -4 111 -15z"/>
</g>
</svg>
